# xmcd
# Track frame offsets:
# 215
# 9522
# 20947
# 34125
# 65890
# 80050
# 91295
# 110197
# 133247
# 147725
#
# Disc length: 2093 seconds
# Revision: 3
# Processed by: cddbd v1.4PL0 Copyright (c) Steve Scherf et al.
# Submitted via: VisiTrax 2.9.5.180 - For more info visit www.synapsa.com
#
DISCID=9d082b0a
DTITLE=Various Artist - The Compulation Compilation
DYEAR=1991
DGENRE=Funny Songs
TTITLE0=Lee Gary and Showdown - The Rodeo Song
TTITLE1=Peters Red  Anthony Marino and The Poisonaires - How's You Whole... Fami
TTITLE1=ly?
TTITLE2=The Dirty Polka Band - The Dirty Polka
TTITLE3=Uncle Mennus - Hustler's Lament
TTITLE4=Fingers Billy - Beer Is Good For You
TTITLE5=Rudolph and The Gang - Here Comes Fatty Clause
TTITLE6=Dr Badbreath - Ethel Pump
TTITLE7=Kip Addotta - Wet Dreams
TTITLE8=Campbell August  and The Spur Of The Moment Band - The I-95 "Asshole" So
TTITLE8=ng
TTITLE9=Peters Red  Anthony Marino and The Poisonaires - Blow Me (You Hardly Eve
TTITLE9=n Know Me)
EXTD=
EXTT0=
EXTT1=
EXTT2=
EXTT3=
EXTT4=
EXTT5=
EXTT6=
EXTT7=
EXTT8=
EXTT9=
PLAYORDER=
